<svg xmlns="http://www.w3.org/2000/svg" width="20" height="20" viewBox="0 0 20 20" fill="none">
<path d="M15.8525 14.1475C15.425 13.7408 15.0158 13.3167 14.7133 12.9942C14.4033 12.6792 14.2167 12.45 14.2167 12.45L11.8833 11.3358C12.7833 10.3083 13.3333 8.96916 13.3333 7.49999C13.3333 4.28416 10.7167 1.66666 7.49999 1.66666C4.28332 1.66666 1.66666 4.28416 1.66666 7.49999C1.66666 10.7158 4.28332 13.3333 7.49999 13.3333C8.96916 13.3333 10.3083 12.7833 11.3358 11.8842L12.45 14.2175C12.45 14.2175 12.6792 14.4042 12.9942 14.7142C13.3167 15.0167 13.7408 15.4258 14.1475 15.8533C14.5592 16.275 14.9708 16.6967 15.2792 17.0133C15.5808 17.3367 15.7825 17.5517 15.7825 17.5517L17.55 15.7842C17.55 15.7842 17.335 15.5825 17.0117 15.2808C16.6958 14.9708 16.2742 14.5592 15.8525 14.1475ZM7.49999 11.6667C5.20249 11.6667 3.33332 9.79749 3.33332 7.49999C3.33332 5.20249 5.20249 3.33332 7.49999 3.33332C9.79749 3.33332 11.6667 5.20249 11.6667 7.49999C11.6667 9.79749 9.79749 11.6667 7.49999 11.6667Z" fill="black"/>
</svg>